<svg version="1.2" xmlns="http://www.w3.org/2000/svg" viewBox="0 0 1080 200" width="1080" height="200">
	<title>mapprojects_logo</title>
	<style>
		.s0 { fill: #388e3c } 
		.s1 { fill: #0b0b0b } 
	</style>
	<path id="MAP Projects" class="s0" aria-label="MAP Projects"  d="m87.6 152h18.6v-87.4h2.6l17.4 87.4h31.6l17.4-87.4h2.6v87.4h18.5v-101.5h-35.5l-17.5 88.4h-2.6l-17.6-88.4h-35.5zm120.9 0h19.7l5.6-22.3h36.2l5.5 22.3h19.7l-26.6-101.5h-33.4zm29.7-40l12.4-49.5h2.6l12.3 49.5zm69.2 40h19.1v-37.1h22.6c18.6 0 32.5-12.2 32.5-31.2v-2c0-19-13.3-31.2-32.5-31.2h-41.7zm19.1-54.5v-29.6h20.7c9.2 0 15.3 5.4 15.3 14.1v1.4c0 8.7-6.3 14.1-15.3 14.1z"/>
	<path id="MAP Projects" class="s1" aria-label="MAP Projects"  d="m433.9 152h12.1v-40.9h26.7c17.8 0 31.9-10.9 31.9-29.3v-1.9c0-18.5-13.8-29.4-31.9-29.4h-38.8zm12.1-51.9v-38.6h25.4c13.2 0 21 6.8 21 18.6v1.4c0 11.9-8.1 18.6-21 18.6zm75.4 51.9h11.5v-43.2c0-11.9 6.8-17.6 17.1-17.6h9.1v-10.4h-8.4c-8.6 0-13.6 2.8-16.1 9h-2v-8.7h-11.2zm84.8 2c21.5 0 36.3-14.3 36.3-36.5v-1.9c0-22.2-14.8-36.5-36.3-36.5-21.4 0-36.2 14.3-36.2 36.5v1.9c0 22.2 14.8 36.5 36.2 36.5zm0-10.3c-14.9 0-24.8-10.3-24.8-26.5v-1.3c0-16.3 9.8-26.5 24.8-26.5 15 0 24.8 10.3 24.8 26.5v1.3c0 16.2-9.8 26.5-24.8 26.5zm62.8-73.6c5.1 0 8.9-3.7 8.9-8.7 0-5.3-3.8-8.9-8.9-8.9-4.9 0-8.7 3.6-8.7 8.9 0 5 3.8 8.7 8.7 8.7zm-19.8 110.9h13c8.1 0 12.6-4.8 12.6-12.5v-87.4h-11.4v85.4c0 2.9-1.3 4.3-4.4 4.3h-9.8zm82.2-26.9c19 0 27.4-10.6 31.7-19.6l-9.8-4.8c-3.5 7.8-9.5 14.2-21.6 14.2-14.1 0-24.3-9.1-24.7-24.3h57.7v-5.3c0-21.6-13.9-35.2-34.1-35.2-20.7 0-35.2 14.8-35.2 36.7v1.7c0 21.9 14.4 36.6 36 36.6zm-24.2-44c1.7-13.2 10.5-20.8 23.4-20.8 12.8 0 21.6 7.6 22.5 20.8zm110.2 44c20.5 0 31.5-12.8 34.5-27l-11.3-2.5c-1.7 10.9-9 19.2-23 19.2-14.1 0-24.8-10-24.8-26.6v-1.3c0-16.5 10.7-26.5 24.8-26.5 14 0 21.1 8.7 22.6 19.1l11.1-2.3c-2.3-14.3-13.4-27.1-33.9-27.1-20.7 0-36.1 13.9-36.1 36.7v1.6c0 22.8 15.4 36.7 36.1 36.7zm77.3-2.1h18.9v-10h-15.9c-3 0-4.2-1.4-4.2-4.3v-46.6h23.2v-10h-23.2v-25.2h-11.4v25.2h-21.3v10h21.3v48.5c0 7.7 4.5 12.4 12.6 12.4zm69.2 2.1c17.4 0 28.5-7.9 28.5-21.8 0-13.8-11.7-18.4-26.6-21l-6-1c-9-1.6-14.6-4.2-14.6-11 0-6.9 5.9-10.6 15.6-10.6 9.6 0 16.7 3.7 18.4 13.9l10.8-2.8c-2.9-13.2-13.2-20.7-29.2-20.7-16.2 0-26.9 7.5-26.9 20.3 0 12.8 10.8 18.4 24.7 20.9l6 1c10.3 1.9 16.5 4.2 16.5 11.5 0 7.2-6.6 11.7-17.2 11.7-10.8 0-20.3-4.3-22.4-18.3l-10.8 2.5c2.4 17.5 15.5 25.4 33.2 25.4z"/>
</svg>